<svg id="_x34_" width="789.1" height="525.5" version="1.1" xml:space="preserve" xmlns="http://www.w3.org/2000/svg" viewBox="0 0 789.1 525.1"><g fill="#231815" stroke-width=".77"><path d="M205.8 166.5c8.201-2.307.807 7.667-4.032 4.613-8.588-1.478-18.01-1.236-24.39 5.535-5.451 4.331-11.07 9.826-10.43 17.39-.816 8.026-4.03 17.41 1.613 24.39 3.149 1.153 7.506-7.188 4.234.358-6.049 9.142-10.12-5.009-10.52-10.27-.605-9.467-.979-20.32 6.175-27.63 5.315-6.288 10.78-15.66 20.4-14.39 5.649.004 11.31-.01 16.95.005zm-30.66 54.2c3.218 1.53 10.74-8.506 7.006-.84-1.633 3.387-4.65 4.625-7.006.84zm11.79 3.004c6.497 2.286 12.28-6.509 16.5-6.301-2.535 5.936-13.15 10.65-17.9 7.77-1.801.159 2.09-1.471 1.402-1.469zm49.53-5.084c.724-10.48 10.36 1.988 8.925 6.012-7.039 2.482-13.8 5.7-17.92 12.42-9.136 10.72-13.23 25.81-8.968 39.46 1.458 6.486 6.373 14.07.662 19.87-2.173-11.61-4.365-23.67-3.97-35.65-.093-9.279 3.682-17.95 9.116-25.31 3.829-5.754 7.916-11.34 12.16-16.79zm-30.12 12.79c4.25 6.874 6.915 15.28 6.195 23.37-3.549-4.716-2.192-14.01-6.419-19.58-1.32-1.818-4.921-5.027.224-3.796zm2.08-11.25c2.479 2.443 13.48-.91 10.77 2.89-3.502 1.048-9.467 1.643-10.77-2.89zm9.167-7.164c2.564.173 13.26-3.086 11.29-.112-1.677.666-14.76 4.692-11.29.112zm9.167-9.706c2.928 2.173 11.22-1.58 11.11.256-2.081 3.04-12.58 3.223-11.11-.256z"/><path d="M228.8 181.4c-7.116 1.156-8.125-5.873-.179-4.832 14.99-2.375 30.5-4.554 44.12-11.65 5.72-4.533 12.3-8.278 16.92-14.01-7.899 1.741-16.59.348-24.81.536-7.28-1.555-13.54 1.784-19.13 6.231-6.883 1.233-6.056 14.49-13.12 11.28-.33-5.264 9.34-8.327 9.125-12.43-8.773 2.778-15.09 10.09-22.18 15.62-3.133 5.12-12.05 9.431-14.6 2.934 10.22-3.266 17.7-11.56 26.93-16.74 11.49-6.4 23.74-13.56 37.37-12.8 10.54-.076 21.25.717 31.66-.486-4.817 5.986-11.83 10.89-17.77 16.1-6.424 5.193-13.52 9.525-21.63 11.46-9.306 2.62-18.44 5.957-27.82 8.208a65.548 65.548 0 0 1-4.891.579zm-47.53 17.87c-10.5-4.012 3.782-18.26 6.744-6.734 3.848 4.641-3.42 6.401-6.744 6.734zm7.703-38.84c5.174-11.73 7.312-26.3 18.9-33.8 7.991-5.564 16.78-9.936 24.08-16.47 2.827-3.116 9.385-5.719 7.727 1.272-1.543 16.17-12.63 29.23-23.63 40.3-3.987 2.461-10.42 12.78-3.961 14.12.941-8.312 6.896-14.09 12.93-19.25 8.299-7.998 16.59-17.25 19.22-28.76 1.681-5.928-1.79-21.77-9.712-12.92-11.02 8.51-25.22 12.22-35.28 21.98-7.317 8.367-11.1 19.26-12.52 30.15-1.792 3.59-5.198 6.784 1.024 3.881l1.221-.51zm62.32 30.13c4.896 5.573 14.43 3.961 20.32 8.788 14.18 8.491 24.46 21.85 34.37 34.77 9.043 15.52 11.89 33.8 13.54 51.44 1.546 14.45-2.742 28.68-1.729 43.14.377 7.971.633 17.28 7.646 22.55 2.606 4.6 11.49 6.805 13.31 8.432-7.508 2.077-14.32-3.712-19.34-8.528-4.794-6.291-2.903-14.69-4.631-21.97-1.086-7.868-2.025-15.92-.069-23.73.453-13.92-.316-28-2.725-41.72-3.365-11.51-6.222-23.54-12.55-33.84-7.629-9.874-15.88-19.98-26.85-26.24-5.889-2.714-13.29-3.805-19.04-3.082-2.813-3.617-8.44-9.292-7.473-13.6 2.164.312 3.823 2.094 5.232 3.595zm.462 65.94c-2.054-5.721 1.413-13.31 5.313-4.684 3.28 8.018-6.144 13.16-8.343 20.06-4.263 9.299-5.676 19.96-4.632 30.09.869 6.636 5.546 17.03-1.533 21.46-8.077.454-11.15-10.41-19.31-10.97-9.283-2.459-18.87-3.48-28.34-4.793-5.268-3.164-10.45-6.26-16.54-6.531 5.22-3.752 11.84 3.119 17.49 4.091 12.66 3.696 26.85 1.122 38.68 7.663 2.757 3.448 8.935 5.872 7.39-1.23-1.608-10.57-2.01-21.33-1.904-32 .109-8.051 7.96-12.29 10.31-19.45a42.629 42.629 0 0 0 1.425-3.712z"/><path d="M245.2 289.1c6.959 3.056 7.051 11.97 8.114 18.47.557 6.734 2.17 14.82.304 20.93-3.06-9.512.81-21.11-6.157-29.26-3.659-1.296-9.77-9.956-2.26-10.14z"/><path d="M259.5 306.5c5.468 9.095 2.297 20.24-2.85 28.68-8.134 14.53-13.32 30.98-12.51 47.77.532 16.73 1.58 34.2 8.991 49.5.88 6.069 14.37 9.079 10.74 14.29-7.136-1.577-11-8.966-14.97-14.49-8.89-14.48-10.23-32.06-10.6-48.65-.6-17.4 6.447-33.72 14.18-48.91 3.403-9.04 4.717-18.82 7.025-28.19zm28.58 58.23c5.812-3.366 8.917 8.972 1.488 9.375-8.606 3.96-13.8 12.92-14.19 22.24-.852 7.82.852 15.62 3.176 23.03-5.158.541-5.588-10.86-6.378-15.79-1.138-9.658.604-19.87 6.896-27.56 2.77-3.936 5.818-7.711 9.009-11.29zm2.619 57.23c5.585 6.266 13.96 8.685 22.12 8.85 10.2 4.535-1.503 15.24-6.899 18.83-7.855 4.593-13.89 11.42-13.57 21.07 1.663 7.318-13.69 9.775-6.022 1.949 5.657-5.734 3.257-14.66 6.962-20.69 5.774-3.197 17.2-4.599 16.93-12.78-5.367-7.355-17.51-6.143-21.66-14.75-.581-1.214.665-3.695 2.148-2.465zm-18.95 21.49c4.999 3.496 14.7 5.146 10.07 13.43-5.223 8.079-10.75 16.21-17.55 23.05-4.444-4.76-10.48 1.446-11.16 6.916-1.17 7.993 7.365 3.004 9.448.546-1.922 9.084 8.714 6.708 11.83 3.433-.005 8.583-11.84 4.665-16.16 2.796-7.446 6.29-11.67-6.748-7.379-12.23 3.073-8.673 15.31-1.59 17.78-11.92 3.079-5.466 9.248-11.29 7.728-17.84-2.145-2.312-3.458-5.28-4.597-8.178zm7.164 45.45c5.677-3.37 5.808 4.359.648 3.228-1.046-.46-2.486-2.749-.648-3.228zm-41.37-63.4c-4.148 8.982-3.569 19.3-3.725 28.95-5.745 4.693-14.57 5.258-19.02 12.23-1.62 4.224-13.38 8.14-8.5 12.26 8.69-2.126 9.594-16.37 19.69-16.16 6.827.185 13.07-2.528 10.78-10.4.33-8.693.436-17.55 3.62-25.77 1.11-2.804-1.773-4.167-2.851-1.101zm-5.161-63.86c5.798-6.28 6.521 3.879 1.904 6.578-6.204 9.187-13.64 17.62-19.12 27.25-4.099 11.4-1.198 23.75-3.138 35.42-3.283 8.217-2.641-5.97-2.768-9.02-.247-10.4-.946-21.4 4.554-30.74 4.58-10.83 13.06-19.21 18.56-29.48z"/><path d="M211.4 442c2.466 7.57-.256 15.72-5.669 21.3-4.384 6.996-12.24 10.49-20.34 9.719-12.28-1.349-.514 19.69 3.596 7.944 1.736-5.005 5.024 6.44 9.125.639 1.91-3.997 2.933-3.15 4.523-.156 7.355-.35-2.669 4.867-5.564 3.505-5.271-.092-8.218-.288-12.04 3.575-6.863.703-10.61-10.2-10.22-15.77 6.693-3.067 14.92-2.587 21.53-6.26 6.704-4.285 11.79-11.72 13.04-19.57-1.65-2.74-1.945-13.04 1.711-5.986l.304 1.055zm85.35-81.81c2.692.644 7.989 8.08 6.857 6.929-1.419-.403-11.81-6.985-6.857-6.929zm8.704-1.001c5.125 3.07 9.96 9.934 14.69 12.17-5.784-.587-16.03-5.3-14.69-12.17zm12.25-.54c2.982 6.657 14.25 6.618 16.92 8.832-6.939.987-18.79-1.624-20.3-9.47.735-1.574 2.767-.284 3.388.638zm-103.7-64.86c-9.851-.011-15.85-10.01-25.32-10.85-4.585-1.798-16.76 7.055-6.556 4.146 8.025-3.652 14.76 4.328 21.87 6.708 2.736.66 13.88 6.776 11.22.507l-1.213-.511z"/><path d="M208.9 267.7c-6.448-1.649-13.88-1.771-13.95 6.948-.81 3.463-6.255 12.43.056 11.85 2.016-6.061 2.716-18.06 12.22-13.31 4.259 1.034 3.982-3.421 1.68-5.493zm-25.5 21.95c5.269.92-5.932 3.317-7.767 3.84-6.359 5.309-5.394-5.365.924-2.715 2.312.013 4.692-.3 6.843-1.125zm-11.25 7.164c-8.313-4.42-11.17 10.62-2.214 8.523 1.976-3.907 7.007-4.493 1.975-.22-.962 4.447-2.24 6.093-6.219 2.882-10.1-1.377-1.93-18.56 6.459-11.18zm59.78-104.2c2.796.892 14.67-1.579 7.617 3.305-2.015 2.847-11.99-1.704-7.617-3.305zm1.541-9.706c2.792-1.68 13.14-1.476 5.751 1.852-1.382 2.263-9.053.085-5.751-1.852zm55.69 26.58c23.02-15.43 45.66-31.62 70.13-44.7 7.222-3.581 15.93-3.16 22.57-8.131 7.992-4.408 15.92-9.007 24.08-13.06 7.211 2.721-4.85 8.53-8.391 9.237-8.154 2.489-16.03 5.61-23.74 9.251-18.89 8.523-36.65 19.4-54.45 29.99-7.156 4.873-15.38 8.838-21.31 15.13-1.295 4.128-9.931 13.94-11.02 5.428.283-1.264 1.051-2.418 2.131-3.14zm-136 98.6c6.654-3.268 6.039 3.917.967 5.762-5.3 4.217-10.8 8.18-16.3 12.12 3.081 6.7 7.528 13.3 8.115 20.78-1.853 6.265-7.168 10.81-10.41 16.38-5.823 6.274-12.12 12.88-20.19 16.12-3.3 2.573-13.96-2.133-4.855-2.302 6.896-2.51 13.59-7.74 19.13-12.99 5.018-5.463 11.58-10.62 13.45-18.08-1.794-7.724-7.845-13.83-10.41-21.35-.081-4.648 5.742 1.074 7.486-4.259 4.39-4.008 8.71-8.092 13.02-12.19zm-30.13 14.79c-.145-4.764 7.976-6.346 3.837-.855-7.563 8.64-16.59 16.39-27.08 21.24-5.02 2.59-8.85-4.774-1.469-3.748 9.228-3.783 16.87-10.63 24.71-16.64z"/><path d="M115.9 317.3c3.592-1.788 9.606 1.684 2.907 2.48-8.874 2.463-18.56 7.011-22.51 15.85.504 3.873.206 5.872-4.216 3.514-.314-7.01 7.631-11.5 12.32-15.89 3.471-2.569 7.267-4.941 11.5-5.954zm-20.95 33.2c6.118 2.611 6.363 13.45 11.13 18.83 2.744 2.421 3.836 9.027-1.185 5.056-3.365-7.325-6.804-15.05-13.13-20.33-2.831-2.77.761-4.205 3.189-3.549zm20.44-12.25c6.866 3.146 4.847 14.08 10.25 19.38 3.904 1.611 3.805 11.87-.474 9.355-2.783-7.882-3.981-16.91-10.63-22.69-2.935-1.903-2.288-4.892.854-6.049zm6.64 1.541c-4.948-7.417 8.577-4.475 0 0zm2.041 4.622c9.182 2.293-4.275 2.473 0 0zm117 8.165c-4.76.239-4.403 7.127-.175 2.57.38-.795.38-1.727.175-2.57zm-31.66-72.02c4.018.622 13.23 3.125 4.217 4.79-1.727 1.065-7.766-4.351-4.217-4.79z"/></g><g fill="#231510" stroke-width=".79"><path d="M786 177.9c-8.824 15.23-14.86 33.3-29.89 43.74-7.544 5.562-15.5 10.56-23.35 15.64-7.558 3.495-16.3 4.151-23.01 9.488-6.748 3.809-14.22 6.492-22.04 6.611-8.237 1.007-16 5.482-24.46 3.814-8.571.278-17.19-1.499-25.69.495-5.541 1.039-13.82 2.482-15.64 8.31 7.088 1.666 15.04.275 22.46.893 18.14.158 36.28-3.342 53.28-9.59 18.11-7.3 36.41-14.72 53.02-25.11 13.59-8.815 25.06-21.38 31.03-36.57.271-5.937 10.19-13.24 4.323-17.72zM475.8 3.3c-11.71 9.47-21.51 21.06-31.2 32.52-7.657 9.523-14.42 19.99-17.9 31.79-6.728 10.46-7.421 23.23-9.925 35.1-3.852 24.97-.701 51.58 11.65 73.88 4.147 7.436 8.159 15.52 15.03 20.81.52-5.124-7.03-11.57-9.461-17.4-7.649-14.62-12.28-30.76-15.01-46.99-1.952-15.99 2.206-31.93 5.83-47.38 4.227-15.18 9.62-30.35 19.29-42.98 10.51-14.59 23.63-27.24 38.09-37.91-2.029-1.048-4.229-1.039-6.39-1.431zm-16.2 208.5c9.585 9.256 18.62 20.11 31.65 24.18 8.261 3.582 16.61 7.082 24.34 11.79-10.28-2.002-20.54-4.845-29.34-10.92-13.51-5.97-23.25-17.55-33.23-28.19-2.249-1.182-7.073-8.194-1.542-4.13 2.845 2.249 5.485 4.78 8.109 7.278zm57.62 39.84c7.881-.439 14.95 1.734 21.63 6.133 8.476 2.25 9.499 12.69 6.287 19.76-1.476 3.219-3.394 9.952-7.824 8.957 1.918-3.618 8.333-11.44 7.05-18.36.215-8.259-9.563-8.225-14.61-11.81-4.117-1.721-8.333-3.19-12.53-4.68zm73.34 8.177c-.914 7.527-8.776 12.1-14.73 15.57-5.725 2.591-11.3 3.817-16.15 6.103-2.991-.452-12.99 2.723-7.456 5.24 6.442-.07 11.39-3.04 17.57-4.379 6.051-.841 11.09-4.082 15.3-6.112 1.323-3.086 5.353-1.408 7.164-3.726 8.772 1.182.404-12.69-1.697-12.7zm-42.04 28.22c-2.443-2.661-8.839 4.763-5.95-2.274 2.007-1.56 9.668-1.593 5.95 2.274z"/><path d="M540.8 285.1c1.958 6.033-8.923 3.745-4.945.673 2.022 1.608 3.201.388 4.945-.673z"/></g><rect class="serifArea" x="480" y="30" width="263" height="215" fill="#000" fill-opacity="0"/><text class="serifText"></text><path d="M4 5.1v516.4h781.1V4z" fill="none" stroke="#000" stroke-width="8"/></svg>