<svg id="_x34_" width="789.1" height="525.5" version="1.1" xml:space="preserve" xmlns="http://www.w3.org/2000/svg" viewBox="0 0 789.1 525.5"><g fill="#231510" stroke-width=".79"><path d="M786 177.9c-9.376 17.39-17.44 37.47-35.39 47.82-12.61 11.16-29.71 14.35-43.96 22.72-18.3 6.687-37.92 10.19-57.4 8.416-9.6-.19-21.41.358-27.35 9.149 30.27 3.343 61.53-1.082 89.14-14.15 24.15-10.26 50.42-21.53 64.87-44.74 4.127-8.327 7.973-16.69 11.97-25.08.332-1.604-.389-3.367-1.88-4.129zM475.8 3.3c-22.98 20.17-44.18 44.16-53.35 73.94-9.278 29.56-10.6 62.64 2.026 91.46 4.326 10.1 10.22 19.55 17.58 27.72.246-7.813-7.319-13.76-10.43-20.67-4.09-6.415-5.055-14.02-7.788-21.01-5.684-18.16-7.355-37.95-2.032-56.4 5.107-28.01 17.56-55.45 38.78-74.91 4.659-7.604 14.28-10.39 19.07-17.79.616-5.064-.339-2.004-3.858-2.332zm-16.2 208.5c10.73 11.49 22.85 22.72 38.36 27.06 4.272 2.378 14.5 5.507 14.82 8.435-23.57-4.833-44.12-19.5-59.11-37.97-2.158-1.601-8.064-8.964-1.837-4.45 2.784 2.07 5.415 4.361 7.763 6.919zm57.62 39.84c12.72-1.707 28.78 6.403 29.68 20.37 1.086 4.727-6.105 16.48-9.035 13.16 4.076-5.651 9.074-13.26 5.433-20.3-5.528-7.219-15.27-8.712-23.17-12.2-.97-.345-1.941-.687-2.913-1.028zm73.34 8.177c-2.505 11.51-15 15.44-24.57 19.41-4.037 1.801-14.88 1.445-14.13 6.968 10.83-.204 20.88-5.246 31.11-8.373 3.272-5.01 18.29-4.101 11.73-12.77-1.239-1.852-2.67-3.567-4.137-5.241zm-42.04 28.22c-6.841 3.052-6.985-5.002-.752-2.94 2.422-.183 2.477 1.9.752 2.94z"/><path d="M540.8 285.1c.806 7.179-9.786.657-2.237.195.914.665 1.56.168 2.237-.195z"/></g><rect class="serifArea" x="480" y="30.37" width="263" height="230" fill="#fff" fill-opacity="0"/><text class="serifText"></text><path d="M4 5.1v516.4h781.1V4L4 5.1z" fill="none" stroke="#000" stroke-width="8"/><g fill="#231815"><path transform="translate(19.29 104.2) scale(.7309)" d="M302.9 129.1c14.44-8.607 9.87 15.09 9.565 22.99-.248 13.75-15.87 7.797-21.3.839-9.632-8.36-23.38-1.637-33.78-8.184-11.61-4.66-25.16.68-32.58 10.27-4.021 4.62-22.66 13-16.76 1.307 5.731-12.01-13.19-1.671-18.95.016-20.69 8.954-30.69 30.41-44.92 46.49-10.51 12.92-20.8 28.23-18.85 45.75 2.109 12.5-5.9 21.91-15.31 28.62-14.33 13.8-27.8 30.16-31.09 50.4-3.121 18.24-4.659 37.74 1.619 55.47 7.97 17.92 30.78 20.97 40.59 37.5 9.881 14.88 8.594 37.2-3.967 50.1-4.676 1.77-19.19 14.43-11.11 3.262 6.247-9.789 10.54-21.2 11.84-32.77.88-15.95-14.35-24.91-23.39-35.67-24.47-27.47-30.49-68.62-16.93-102.5 6.78-21.64 31.59-30.84 38.15-52.51 3.991-13.41 7.432-27.08 14.38-39.37 12.05-23.14 25.48-48.76 50.44-60.04 18.11-7.632 38.13-9.9 55.68-19.12 15.46-8.415 33.46-7.429 50.25-4.764 5.465.729 10.93 1.505 16.43 1.937z"/><path transform="translate(19.29 104.2) scale(.7309)" d="M160.9 335.6c6.492 10.88 17.49 23.89 31.7 20.49 17.35-6.85 31.65-20.61 50.44-24.18 25.23-5.144 52.41-2.484 75.95 8.053 17.51 7.843 25.21 27.7 24.7 45.85-.656 24.64-6.296 49.44-1.963 74.03.071 5.942 12.85 13.78 5.016 3.369-8.877-11.91-1.358-26.98.151-39.99 2.35-19.09 1.645-38.38 2.689-57.54-1.002-19.35-19.22-32.2-35.91-38.31-17.67-6.003-36.79-5.865-55.24-5.38-24.61.246-45.78 16.13-70.39 16.27-9.117.184-18.17-1.214-27.14-2.66zm168.7-181.8c5.394-19.21-1.823-40.59 8.426-58.72 14.05-25.15 34.74-45.94 56.26-64.8 6.249-3.497 21.24-19.61 5.759-19.2-12.15 5.475-17.92 18.59-27.13 27.56-12.1 14.97-25.66 28.88-36.17 45.06-13.08 20.93-8.713 46.89-7.145 70.11zm-56.7-38.2c-1.555-15.73-1.126-31.76.958-47.4 4.727-18.69 21.62-30.63 28.92-48.09 5.877-4.313 6.801-21.79-2.193-18.74-10.91 18.42-18.19 38.72-27.84 57.8-7.176 15.67-6.773 33.54-4.956 50.31.56 2.413 1.438 7.907 5.11 6.11zM319 8.894c8.121 6.418 6.334 18.5 7.746 27.69.257 17.91-1.567 35.87-4.096 53.59.259 8.435-9.613 11.26-8.905 1.368 2.962-22.42 6.036-45.39 2.279-67.94-.813-4.624-4.255-13.54 2.976-14.71zm1.3 163.306c-14.76-1.482 4.391-12.11 10.23-6.245 12.76 3.739 21.47 14.31 27.43 25.65 10.45 17.83 21.47 38.57 15.99 59.83-3.534 9.347-9.016 18.07-15.18 25.86-11.99 2.343-.396-16.48 3.249-21.37 8.932-11.5 7.495-27.24 1.572-39.72-5.945-12.13-12.35-24.68-22.4-33.95-6.2-4.766-13.9-6.789-20.89-10.07zM290 253.9c16.93 2.953 32.13 14.91 40.11 30.02 6.709 12.4 5.737 27.37 12.35 39.71 6.934 9.821 21.26 9.566 31.72 6.771 12.18-3.837 14.14-17.85 22.06-26.03 10.44-5.664 5.244 7.395.174 10.56-8.488 11.03-17.47 26.14-33.41 25.48-12.64.533-28.26-3.467-32.19-17.16-5.466-17.24-6.042-37.3-19.93-50.63-6.261-6.976-13.41-13.11-20.9-18.72zM70.04 318.5c-13.78 14.04-27.46 32.13-25.85 52.88 2.489 15.9 18.11 24.15 30.08 32.54 11.88 8.063 26.86 15.95 30.56 30.99 2.688 5.808-1.895 19.17-5.192 18.08 6.655-13.42-4.515-27-15.72-33.55-18.9-13.04-40.77-25.23-51.06-46.79-6.048-13.18 5.862-24.25 13.33-33.65 8.929-9.377 13.88-21.67 22-31.44 11.26-7.775 1.854 6.409 1.849 10.95zM247.9 441c9.825 4.496 6.008 17.18 7.49 25.62 9.1-2.911 16.88-10.76 25.45-15.62 3.801-3.145 15.75-9.555 6.44-1.312-10.65 9.159-23.03 16.1-33.4 25.59-11.24 3.821-6.968-16.16-7.167-23.04.338-3.754.79-7.497 1.186-11.24z"/><path transform="translate(19.29 104.2) scale(.7309)" d="M297.9 421.2c13.37 5.879 16.89 21.69 16.02 34.99.11 13.84-3.673 29.01 3.411 41.72 8.422 9.338 21.94 4.782 32.68 3.512 7.448-2.24 27.39-3.014 26.14 2.796-15.43-.511-30.41 3.154-45.27 6.739-8.883 2.051-24.19 2.433-24.6-10.05.285-16.46 2.604-33.2-.45-49.53-2.4-10.11-7.665-19.6-7.936-30.17zm68.6-143.6c10.68 7.661 26.33 14.31 37.9 4.585 9.413-5.527 21.17-15.67 32.44-10.26 11.25 8.563 23.27 17.33 29.19 30.66 1.908 8.196 18.58 13.23 13.33.363-7.584-16.8-30.27-17.64-39.82-32.81-8.044-14.56-25.1-3.246-35.16 2.55-11.49 7.2-25.21 3.674-37.86 4.92z"/><path transform="translate(19.29 104.2) scale(.7309)" d="M409.9 276.8c8.908-5.329 21.26-11.43 30.71-3.803 12.19 8.019 20.82 19.93 28.67 31.95 2.603 8.119 14.66 7.284 9.062-2.215-10.42-15.66-32.36-18.27-41.66-35.07-11.82-10.99-26.25 4.072-37.9 8.186-10.39 4.452-21.74-1.411-32.32 1.839 10.74-2.798 22.32 2.411 32.67-2.951 11-3.653 20.52-13.87 32.83-11.78 9.314 3.458 12.1 14.93 21.33 18.75 9.774 5.931 22.05 11.08 26.49 22.39 5.179 12.85-10.8 7.82-13.68.048-5.763-10.63-13.7-19.8-23.49-26.9-6.575-8.488-17.11-7.049-25.55-2.437-10.31 3.87-18.14 15.66-30.34 12.65-5.628-.863-18.09-9.257-18.43-9.198 10.32 5.428 23.64 13.93 34.32 4.08 2.429-1.845 4.702-3.9 7.289-5.53zM167.8 445.9c5.906 10.18 24.54 6.822 28.93 14.5-10.79 2.433-23.21-1.134-31.02-9.011-4.751-3.407-6.402-16.11.708-6.59zm19.7-4.7c5.077 2.663 21.71.376 18.46 7.526-6.337.928-22.72.141-22.12-6.603l1.487-.497zm24.4-12.7c13.02 4.528 26.42-2.194 39.5-1.212-11.44 6.594-25.58 11.3-38.52 6.334-5.525.15-15.37-8.117-4.292-5.505l1.347.21zm51-22.6c11.11 3.825 23.01 2.223 34.4 3.626.335 3.849-14.9 5.43-21.05 4.573-5.906-1.128-21.59-2.401-20.44-7.929 2.351-.33 4.731-.14 7.093-.27zm21.6-21c5.853 1.372 20.47-2.978 19.36 5.385-3.036.781-33.6 1.204-19.36-5.385z"/><path transform="translate(19.29 104.2) scale(.7309)" d="M162.2 444.8c1.448 7.896 1.446 25.96-6.638 24.87 3.741-9.431-1.113-20.98 2.587-29.57 2.256.215 2.814 3.24 4.051 4.701zm-17.5 18.5c2.333 6.023.273 23.88-4.743 19.16 1.665-3.965-5.763-30.33 4.743-19.16zm-9.9 8.6c-4.741 7.418-17.99 20.79-23.98 15.44 8.778-6.06 15.91-14.08 22.59-22.25 3.211-.642 1.51 5.214 1.395 6.81zm299.3-2.9c-12.18-2.162-24.27 2.664-36.54 2.027-13.32.467-26.66.223-39.98-.247 5.541 2.439 13.57 5.497 21.12 5.01 15.53 1.285 31.09-.573 46.59-.39 12.22-1.844 3.346 18.18 13.84 14.69 6.482-5.844 3.489-18.84-5.033-21.09z"/><path transform="translate(19.29 104.2) scale(.7309)" d="M359.8 471.7c.598.005-.19-.335 0 0zm46 18.9c-1.947-.708-9.909 5.094-1.038 3.99 8.698-2.246 18.71 20.2 22.06 5.278-.905-9.736-13.55-11.43-21.02-9.267zm-4.804 2.7c.6-.081-.395.413 0 0zm.172.188c-.453.219.04-.172 0 0zM393.4 499.2c-3.134-.947-11.25 4.226-1.441 3.088 6.155.891 14.38 11.3 13.43-.842-2.31-3.9-8.345-4.35-11.99-2.246zm8.62 8.457c-.311.17-.095-.168 0 0zm-14.79-6.493c-.034.082-.214.215 0 0zm-.024.347c-.342-.272.204.12 0 0zm.093.022c-.103-.05.077-.03 0 0zM436.7 308.3c9.173-5.128 20.66 15.21 10.24 15.1-4.644-4.183-3.685-11.99-10.24-15.1zm18.8-1.8c6.151-1.605 16.14 14.49 6.551 11.21-.791-6.846-24.2-10.85-6.551-11.21zm-32.2 9.4c9.498-2.476 6.159 14.11 1.126 4.323-.554-1.383-1.013-2.828-1.126-4.323zM387 257.3c-1.548-10.07 9.721-14.37 15.82-20.08 9.829-3.764.374-14.63 10.64-16.9 5.562-8.336-1.518-19.22-3.021-28.22-5.093-14.42-15.22-27.89-29.01-34.89-7.877.742-15-10.51-4.083-11.72 14.16.291 22.64 11.38 25.17 23.77 11.81 14.21 18.98 32.79 19.09 51.31-.605 12.02-14.7 15.59-19.25 25.93-4.074 4.453-8.529 11.65-15.36 10.81z"/><path transform="translate(19.29 104.2) scale(.7309)" d="M385.2 218.7c-9.938-4.757-1.056-21.4 6.46-11.02 1.945 8.866 2.946 12.47-6.46 11.02zm-19.3-50.4c-3.099-9.358-5.7-20.08.659-28.8 11.28-18.76 25.66-36.73 28.51-59.18 3.418-14.27 1.942-28.97 3.153-43.4 5.604-7.648 7.826 11.39 6.177 15.77-2.224 22.62-4.828 46.59-19.08 65.27-9.801 14.57-22.68 31.13-17.08 49.75z"/></g><g fill="#231815"><path transform="matrix(.01454 .06909 -.06909 .01454 369.4 269.5)" d="M1.878 442.3c16.62-30.38 36.14-59 54.76-88.16 6.291-9.838 11.64-20.26 15.63-31.24 4.778-9.173 13.13-17.98 23.83-19.34 8.789.227 4.868 11.36 2.041 15.95-10.75 23.49-20.49 48.52-39.71 66.62-16.79 16.82-24.51 40.09-39.56 58.2-4.207 4.082-8.904 10.26-15.34 9.734-3.616-2.457-2.143-8.186-1.658-11.77zm82.24 53.5c31.58-30.3 58.64-64.9 89.7-95.69 7.352-7.171 16.14-13.04 25.75-16.69 8.88-2.409 4.41 8.877 1.825 12.84-11.01 21.06-32.32 33.46-47.22 51.32-12.97 17.11-29.76 30.78-44.41 46.37-5.248 5.036-9.465 11.03-14.61 16.14-5.819 5.839-10.46-3.085-10.45-8.342a50.1 50.1 0 0 1-.595-5.951z"/><path transform="matrix(.01454 .06909 -.06909 .01454 369.4 269.5)" d="M70.46 327.3c-15.97-2.46-26.52-16.88-32.01-31.05-13.74-36.13-5.009-80.75 23.98-107 18.56-17.09 43.7-25.23 68.48-27.23 8.066-4.249 20-3.33 24.68 5.448 4.089 6.519-1.727 14.17-8.657 14.78-24.1 5.748-47.98 12.44-71.68 19.63-12.41 4.348-19.47 17.25-20.57 29.8-2.16 22.67 5.502 45.28 16.75 64.69 4.408 7.644 10.08 14.47 16.08 20.87 3.521 4.123 7.119 13.82-1.318 14.4-5.781.98-10.61-2.315-15.73-4.301zm202.44 97.6c31.32-.645 62.89-8.882 89.51-25.64 18.68-11.82 34.84-30 38.64-52.37 2.922-15.81-.711-32.02-6.79-46.64-2.481-7.018 5.298-11.26 11.25-11.59 7.103-.957 14.33-.455 21.4.532-7.035.258-8.022 8.851-7.206 14.28 1.164 8.54 4.368 16.79 3.917 25.53-.278 29.54-12.16 59.92-35.26 79-11.09 9.448-25.03 14.37-38.92 18.02-22.31 6.274-44.49 14.16-67.73 16.11-13.11.989-27.52-1.853-37.17-11.33-2.997-6.503 8.309-5.874 12.43-6.323 5.314-.174 10.64.019 15.94.416z"/><path transform="matrix(.01454 .06909 -.06909 .01454 369.4 269.5)" d="M62.4 202.7c-15.9-17.25-20.21-42.07-18.75-64.78 3.237-48.32 33.06-93.48 75.58-116.4C159.27-.6 207.1-3.57 251.53 3.28c13.88.843 27.62 7.625 41.13 6.955 11.38-.235 21.6 6.347 30.51 12.75 4.731 4.332 12.62 9.236 11.4 16.53-4.697 4.693-12.17 1.832-18.06 1.789-21.66-2.086-42.74-7.842-64.29-10.71-21.64-2.761-43.01-7.3-64.64-10.07-20.48-2.591-42.85-1.455-60.35 10.7-17.3 11.99-29.1 30.46-36.86 49.73-10.32 25.72-8.579 56.78 7.554 79.76 3.43 5.509 9.086 10.46 14.36 12.96-5.327 5.735-12.88 8.877-19.47 12.96-10.03 5.583-20.21 10.89-30.46 16.07z"/><path transform="matrix(.01454 .06909 -.06909 .01454 369.4 269.5)" d="M295.3 73.18c-11.35-6.322-23.35-12.47-32.06-22.35-6.5-6.457 2.727-12.15 9.028-11.64 9.243-.78 18.7-.214 27.64-3.22 18.34-5.528 35.56-15.26 54.95-16.9 29.45-3.018 58.05 8.043 83.83 21.16 29.2 13.89 48.93 42.01 59.97 71.64 14.02 38.21 16.79 81.34 4.037 120.3-8.522 26.15-26.71 50.2-52.53 61.09-19.6 8.558-41.73 9.507-62.65 6.246-2.669 5.83.572 17.78-6.705 19.47-7.324-5.154-10.74-14.02-16.17-20.9-4.455-6.821-10.43-12.77-13.66-20.32.447-6.811 10.98-2.355 15.32-2.233 17.34 4.755 35.8 1.8 52.27-4.694 19.43-7.69 37.37-19.13 52.87-33.11 10.34-11.65 14.12-27.46 16.92-42.39 4.139-26.68 3.573-54.94-6.514-80.29-3.898-9.601-9.909-18.47-18.52-24.42-27.14-22.23-60.03-40.11-95.77-41.49-25.87-1.004-52.45 7.169-72.26 24.07z"/></g></svg>