<svg id="_x34_" width="789.1" height="525.5" version="1.1" xml:space="preserve" xmlns="http://www.w3.org/2000/svg" viewBox="0 0 789.1 525.1"><path d="M786 203.9c-9.359 17.42-17.46 37.42-35.39 47.82-12.9 11.25-30.26 14.7-44.84 23.03-23 6.506-47.1 7.897-70.86 9.393-11.46 1.039-22.94-.535-34.39.04-4.992-.176-16.32 4.623-14.19 7.97 31.21 2.29 62.71.024 93.52-5.305 15.28-2.448 29.82-7.856 43.77-14.43 20.43-9.13 41.71-20.73 53.07-40.87 2.801-8.918 11.65-17.77 10.29-26.91l-.97-.741zM475.8 3.3c-25.22 21.9-48.04 49.07-55.74 82.34-8.783 33.05-6.172 70.43 13.19 99.37 2.439 3.654 11.56 17 7.721 5.851-4.737-8.888-11.98-16.59-14.15-26.75-6.793-19.28-10.91-40.26-6.329-60.55 4.148-20.99 10.53-41.95 22.73-59.78 5.972-9.459 14.24-17.09 21.64-25.3 4.504-4.886 15.72-8.44 14.42-15.78-1.114.364-2.297.765-3.478.602zm-21.4 205.5c7.992 13.93 17.92 27.53 32.25 35.44 3.255 2.857 12.53 7.956 10.84 10.37-21.94-10.11-38.27-29.38-49.08-50.55-2.952-3.316-2.948-8.225.77-2.725 1.935 2.343 3.708 4.826 5.221 7.464zm47.49 51.5c13.26 1.11 27.08 13.1 24.39 27.34-.048 4.509-10.36 13.85-10.6 9.011 6.918-5.119 13.48-16.21 5.011-23.14-5.474-5.411-12.58-8.793-18.8-13.21zm69.77 24.05c-5.202 10.9-18.63 11.92-29.11 13.68-3.985.112-15.26-1.261-13.44 3.768 10.4 1.813 20.83-.76 31.19-1.543 5.034-3.471 19.81-1.124 13.6-11.43a57.401 57.401 0 0 0-2.252-4.472zm-47.2 18.32c-8.751 1.503-2.343-7.958 1.573-1.623l-.443.93z" fill="#231510" stroke-width=".79"/><rect class="serifArea" x="480" y="30.37" width="263" height="220" fill="#fff" fill-opacity="0"/><text class="serifText"></text><path d="M4 5.1v516.4h781.1V4L4 5.1z" fill="none" stroke="#000" stroke-width="8"/><g fill="#231815"><path d="M286.5 44.12c-1.743-6.235-2.666-21.03-6.72-21.5 3.146 7.936-2.857 20.99 4.174 25.5 1.913-.123 2.754-2.346 2.546-4zm-3.3-28.36c7.076-2.187 14.23-15.52 18.91-14.14-2.783 6.871-11.21 19.67-19.91 16.5-.792-.883.094-2.056 1-2.364zm25.4-13.822c3.611 6.864 20.52-1.117 16.79 11.42.507 3.796 6.163 21.31 6.484 10.03-5.569-7.706-1.01-21.56-14.08-21.94-2.354-.024-8.864-3.417-9.2.483z" transform="translate(-30.46 94.53) scale(.8434)"/><path d="M363.2 19.03c7.131 3.064-6.637 5.985-10.17 5.687-22.69 3.099-45.42 10.03-63.53 24.54-15.63 10.83-28.47 25-41.11 39-5.602 3.992-6.037 13.75-10.46 19.6-3.047 8.555 6.97 10.9 10.47 14.95 12.5-5.653 18.29-20.4 31.16-25.59 8.299.563 3.054 22.39-1.818 10-3.199-10.38-11.29 6.56-15.64 9.267-5.548 6.959-13.9 17.04-21.23 5.98-11.55-4.132-4.726-16.71-1.704-24.51 3.787-9.607 12.61-15.85 18.79-23.84 15.82-17.19 34.66-31.76 55.41-42.51 10.64-3.926 21.31-8.166 32.7-9.154 5.692-1.284 11.36-2.597 17.14-3.422zm13.1-2.18c4.636.348 20.82-5.505 17.65 2.239-7.167-.544-15.93-.272-22.24-.557.993-1.407 3.111-1.334 4.591-1.682zm27.3 3.63c-7.124-8.284 10.55-4.338 12.73.728 9.485 8.929 6.87 24.67-.323 34.19-4.676 11.96-16.36 18.53-26.05 25.99-8.169 3.818-2.377-5.456 2.407-5.787 7.586-6.634 16.19-12.65 21.89-21.07 1.559-4.686 2.443-9.611 4.791-13.96 3.508-9.69-4.597-18.26-13.85-19.67zm-37.1 35.28c4.347-2.411 8.882-17.94 12.85-11.78.126 3.377-.968 19.23 2.273 8.17 5.668-9.187-4.893-22.12-10.01-8.366-1.361 3.373-17.15 14.39-5.113 11.97z" transform="translate(-30.46 94.53) scale(.8434)"/><path d="M342.5 54.67c2.48-11.31-13.14-9.9-17-2.367 2.019 2.536 11.22-5.784 9.069 3.32 5.707 7.15 19.91.379 28.86 2.338 11.84-2.575-6.286-3.087-9.822-2.859a1719.82 1719.82 0 0 1-11.11-.431zm-6.2 31.27c5.114-4.641 15.69-4.834 12.93 4.905-4.431 5.264-12.38 8.996-14.52-.314-2.884-1.794-1.51-4.677 1.597-4.592zm31.6.37c-5.049-10.55 17.07-6.131 6.683 2.988-3.032 1.983-5.55-.114-6.683-2.988zm5.1-27.64c11.12 3.85 16.55 16.98 13.91 27.91-3.235-2.869-2.069-17.46-8.183-22.56-.855-1.87-11.47-4.442-5.728-5.353zm-58.2-.73c7.434-11.57 5.458 12.22 1 15.68-5.093 11.08-4.51 23.71-3.91 35.6 2.646 3.269 5.364 16.84-1.364 9.955-1.856-9.046-.852-18.55-1.102-27.77-.262-11.49 5.915-22.03 5.376-33.46zm-9.4-1.09c-5.354-.272-20.17-1.701-18.93 5.546 7.503-.548 11.39 14.08 17.16 10.65-.854-6.834-13.74-11.91-14.96-11.46 5.557-5.255 17.57 2.433 20.36-2.91-.626-1.377-2.225-1.974-3.637-1.818zm77.4 48.35c7.504-6.556 4.281 8.69-1.443 9.615-4.289 8.431-6.075 19.08-2.401 28.11-.275 8.024-23.2 7.532-15.01-.603 3.684-5.929 12.8 1.813 10.64-6.782.056-10.95 1.082-21.49 8.213-30.34zm-44.7 14.9c5.419 7.646 15.4 11.54 18.91 20.46-2.143 9.18-7.702-11.27-14.56-12.08-3.325-.971-5.715-6.429-4.347-8.377z" transform="translate(-30.46 94.53) scale(.8434)"/><path d="M387.2 131.8c10.94 3.17 7.215 17.79 7.268 26.37-1.893 13.84 9.494 25.24 9.188 38.91-2.35 11.32-16.98 11.03-25.09 6.027-3.757-1.731-22.27-3.204-8.824-4.027 9.409-1.836 20.48 6.006 28.47.38 1.132-8.651 1.949-18.76-3.893-26.06-6.405-10.75-.807-24.14-5.671-35.23-2.153-2.143-10.15-5.981-1.455-6.363zM253.7 272.5c-2.607-7.872-5.943-18.18-1.816-25.68 9.209 4.99 7.563 18.06 12.3 26.41 3.922 17.44 2.444 35.53 4.093 53.24.079 17.97 1.213 36.66-4.787 53.88-6.506 12.11-19.97 19.69-24.18 33.3-1.681 13.85 5.208 27.83 14.91 37.43 6.103 4.719 10.43 20.15.697 21.09 4.85-11.42-3.07-19.59-9.465-28-4.235-9.027-7.745-18.59-9.707-28.37-1.208-12.47 10.39-20.73 18.55-28.16 3.912-2.768 4.632-8.077 7.04-12.04 2.028-10.34 6.157-21.37 1.638-31.64-2.371-5.135 2.37-9.087 1.323-14.3.668-16.29 1.438-33.44-6.552-48.26a310.893 310.893 0 0 0-4.045-8.899zM251 159c2.178-6.881 11.93-9.684 14.49-2.173-8.267 5.352-16.91 11.94-16 23.26-.284 3.862 6.493 12.5-1.039 7.056-3.061-8.688-1.725-20.04 2.548-28.14zm8.7 34.4c10.58.847 17.12-9.937 26.79-12.41 4.03-4.098 15.43.416 5.395 2.048-11.9-2.742-16.41 10.86-25.61 14.33-2.898 2.323-14.11-2.221-6.577-3.963zm-15.2-60c-11.16 14.17-29.98 21.81-36.58 39.57-3.681 7.4-5.584 18.17.055 24.3 1.322-9.101.075-19.28 6.474-26.92 8.817-12.53 20.58-22.52 31.22-33.36 3.607-3.509 5.809-10.91-1.171-3.59zm-27.3 64.9c12.11 14.6 30.22 21.61 46.84 29.6 10.47 4.788 22.12 5.84 33.46 4.779 8.581 3.128-7.643 5.868-11.03 4.538-10.94.64-20.14-5.201-29.39-10.06-12.91-5.646-25.22-12.7-36.06-21.76-1.9-1.925-3.548-4.322-3.818-7.091zm122.7 16.9c6.488-3.619 9.921 4.401 1.853 4.652-8.614 2.028-24.19.506-23.73 13.26.448 12.51-2.635 26.81 5.134 37.69 7.688 9.021 21.02 10.28 32.07 9.214 10.44-1.814.142 7.138-5.248 4.625-17.38 2.614-35.15-12.99-34.25-30.71-.14-9.241-1.759-18.81.486-27.85 4.193-9.454 16.27-5.961 23.68-10.88zm6.6-54c1.669-9.795 13.14-3.19 6.329 3.011-12 11.24-23.98 22.66-37 32.7-3.757 3.404-14.63 2.866-4.785-.795 7.902-3.845 13.63-11.03 20.94-15.89 5.858-5.467 13.81-10.19 14.52-19.02z" transform="translate(-30.46 94.53) scale(.8434)"/><path d="M383.6 179.8c6.305 5.537-9.731 2.332-13.51 2.284-8.513.107-4.614-3.214 1.01-2.284h12.5zm-20.2 11.4c-.511 7.453 4.968 21.1-1.161 24.85-1.591-8.664 1.06-17.88-1.158-26.36l.84.239zm-96.6-19.1c9.56-1.079 18.73-5.786 24.22-13.78 6.71-6.831 18.95-5.375 23.76 2.967 5.472 2.988 3.096 20.99-1.604 16.23 4.168-10.47-1.611-23.3-14.19-20.76-7.999 3.846-13.01 13.25-22.55 15.3-2.355 3.545-20.35 5.205-9.635.042zm39.9 97.7c1.969 8.676 2.037 18.16 7.815 25.55 8.453 13.75 18.53 27.55 19.52 44.27.495 5.782 2.356 14.73-.806 18.83-2.457-11.48-1.187-23.98-7.085-34.5-3.945-10.16-10.25-19.01-16.51-27.83-3.638-8.048-7.792-19.87-4.734-27.75.87-.098 1.533.703 1.803 1.429zm28.3 93.3c3.786 9.616-9.542 17.57-3.273 26.18-11.25-1.316 2.015-15.68 1.408-22.64a17.95 17.95 0 0 1 1.865-3.543zm0 29.4c2.153 9.27 1.965 21.85 13.91 24.14 7.179-.34 18.26-2.029 18.37 8.85 1.72 10.22-10.59 2.973-5.288-2.96-2.255-7.237-13.61.902-17.71-6.64-9.857-3.826-12.17-15.56-11.2-24.86.675-1 2.055 1.762 1.918 1.466zm-21.3-25.1c-3.692 8.638-6.693 22.18-8.443 28.63-3.128-9.976 1.306-20.18 5.258-29.2.886-1.385 2.531-.524 3.185.575zm-1 30.6c7.937 8.502 9.223 20.57 14.23 30.66 5.001 9.646 17.14 4.731 25.21 3.583 7.507-1.562 6.506 12.28.314 4.961-8.126-2.397-21.38 5.416-26.08-6.368-3.264-8.95-9.694-16.19-11.49-25.75l-2.182-7.092zm-106.9-75.9c11.51-4.452 3.713 13.9 2.139 19.65-5.83 18.76-16.42 37.12-14.59 57.35-2.85-10.23-1.363-22.8 2.574-33.24 3.095-10.32 9.171-19.59 10.15-30.54 1.506-4.454.32-8.753-.267-13.21zm6.7 16.1c4.949 5.572 7.002 17.15 7.081 22.05-3.27-7.018-6.682-14.18-7.081-22.05zm9.1 16.7c5.113 9.371 8.619 20.19 5.44 30.82-1.149 5.419-5.227 16.92-9.114 16.81 6.277-9.067 9.118-20.39 8.03-31.31-1.688-5.344-6.56-10.32-4.355-16.32zm-6 54c-4.142 10.19 3.782 19.75 2.182 30-1.398 8.429 1.524 17.21 7.856 22.96 2.477 3.711 8.742 12.86 12.21 7.538-8.146-4.846-14.93-12.42-18.43-21.22-.816-8.871 3.334-18.01-1.385-26.4-2.684-4.13 4.571-17.72-1.147-15.14l-.653.987zm27.2 53.4c-.025 2.748-2.293 8.486-.938 10.32 5.453.064 6.29-9.324.938-10.32z" transform="translate(-30.46 94.53) scale(.8434)"/><path d="M251 465.6c2.913 8.315-6.775 4.828 0 0zm48.1-377.12c8.247 9.494-12.3-7.762-4.682-10.51.443 3.826 1.912 7.753 4.682 10.51zm-3.2 15.82c11.53 4.443-6.894 1.957-5.826-5.323-1.543-3.227-2.907-12.3.19-4.231 1.627 3.287 2.513 7.269 5.636 9.554zm-.2 8.3c-5.702-7.642 13.68 8.614 2.78 2.499-.977-.776-1.868-1.65-2.78-2.499zm40.4 21.7c12.11-1.133-4.975 3.569-8.781 2.023-5.994-.705-6.943-2.651-.365-1.757 3.05-.008 6.106.034 9.146-.266zm56.2-2.1c-3.866-.233-10.73-5.434-2.698-2.48 8.42 2.675 17.55 6.027 22.75 13.63-6.131-4.594-12.93-8.329-20.05-11.15zm21.9-8.2c-4.025.146-17.27 1.718-16.81-.47 16.08-1.308 32.2-1.9 48.32-.919 7.162.012 16.6 2.852 21.9 3.415-9.731.003-19.34-2.363-29.14-1.827-8.09-.247-16.18-.736-24.27-.199zm-19.9-10.3c-2.822 2.557-10.03 4.541-3.445.298 7.078-4.457 15.42-7.357 23.84-7.182-6.765 2.353-13.88 3.82-20.39 6.884zM196.8 298.8c-3.822 10.65-8.224 21.94-18.26 28.84-6.476 5.56-17.17 12.33-23.58 12.69 13.2-8.031 28.08-16.5 34.48-31.31 1.466-2.995 1.403-15.81 7.363-10.22zm-47.5 51.3c-8.13 2.971-14.75 9.512-21.8 14.65-9.17 7.35-15.91 17.05-22.04 26.93-2.663-.647 5.746-11.96 8.197-15.46 7.038-9.801 16.92-16.9 25.87-24.73 2.185-3.449 8.867-8.439 9.766-1.38zm-14.9 25c1.434-4.741 17.84-9.856 8.26-3.321-7.673 5.453-13.29 13.29-20.71 19.11-4.412 2.965-12 13.49-14.11 13.65 5.473-12.52 16.92-20.4 26.56-29.44zm24.4-6.4c-7.962 10.82-15.89 21.73-26.01 30.69-3.77 3.166-11.88 12.28-14.35 10.45 10.21-12.86 21.87-24.52 31.6-37.78 2.013-2.13 5.844-6.919 8.763-3.365zm10.3-1.9c-.565-4.997 9.808-15.52 4.214-5.198-4.476 12.47-7.046 26.36-16.3 36.45-3.511 2.7 3.911-7.468 4.114-10.54 2.804-6.851 5.768-13.64 7.973-20.71zm-6.2 45.4c-1.115-4.695 9.734-14.51 5.447-5.633-3.624 11.01-7.415 22.53-16.1 30.83-3.605 4.017-8.843 6.076-2.71-.395 4.532-8.198 10.57-15.75 13.36-24.8zm16.5-6.4c-.293-4.447 5.09-11.95 3.014-2.972-1.878 9.223-6.394 19.99-13.53 25.21 3.573-7.37 7.698-14.53 10.51-22.24zm-36.1 26.7c1.017-3.129 10.47-13.07 5.824-4.465-7.538 11.04-15.58 23.05-28.28 28.58 7.923-7.493 15.73-15.43 22.45-24.12zm-10.8 5.8c-6.796 2.078-11.15 8.364-16.54 12.87-8.241 6.168-16.06 13.77-25.97 17.03 2.275-3.495 14.98-9.572 20.29-15.31 8.353-2.971 12.76-21.44 22.1-15.57l.256.553zm-24.6 3.3c3.138-2.017 11.36-11.7 12.91-8.22-7.064 7.602-15.71 13.72-22.78 21.41-7.802 7.28-16.66 16.13-28.09 15.88 15.39-4.945 24.86-19.4 37.48-28.69zm-23.86 10.6c2.805-1.761 11.24-10.49 11.85-6.731-8.888 8.01-19.03 14.66-30.34 18.74-7.039 1.525-15.51 6.795-21.27 6.837 7.794-3.763 15.21-8.249 23.59-10.78 5.502-2.443 11.02-4.944 16.17-8.074zm3.44-24.1c1.132-5.993 14.89-11.37 6.141-3.594-5.319 7.251-10.36 14.71-17.13 20.78-3.714 3.659-9.526 9.319-13.86 9.717 7.86-7.117 14.25-15.71 21.9-23.06 1.026-1.249 1.986-2.549 2.95-3.846zm-2.63-9.8c1.439-4.55 10.13-9.802 4.078-1.88-5.95 8.467-12.32 17.55-21.92 22.13 5.77-6.784 12.14-13.31 17.84-20.25zm46.55-5.2c1.447-4.258 16.27-10.82 7.51-3.99-7.93 8.233-17.52 14.53-27.75 19.6-4.662 2.556-18.38 10.05-7.209 2.03 8.56-6.788 18.91-10.84 27.44-17.64zm47.9-38.2c-.538-4.444 4.369-12.33 2.84-3.17-1.4 9.521-5.086 20.4-14.32 24.91 5.099-6.339 9.157-13.85 11.47-21.74zM155 353.1c3.149-3.982 14.18-3.998 4.605-.127-9.12 4.908-17.65 14.56-27.34 16.13 7.598-5.304 14.61-11.46 22.74-16zm6-83.3c8.274-7.38 17.99-13.9 22.24-24.64 3.567-8.182 7.591-16.09 12.73-23.41 2.954-5.241 9.153-15.34-1.909-10.96-10.8 2.581-10.4 15.04-10.51 23.81-1.688 10.85-9.976 19.61-16.93 27.71-2.094 2.319-4.035 4.796-5.626 7.49zm15 7.2c-.758-5.687 7.775-10.63 5.268-2.058-2.199 9.738-8.932 18.68-17.93 22.98 1.688-7.999 8.705-13.86 12.66-20.92zm-21.7.7c2.665-4.588 14.14-2.807 4.34-.506-9.004 5.23-14.7 15.15-24.46 19.18 6.58-6.284 12.47-13.5 20.12-18.67zm39.6-89.9c3.824-3.154 8.983-.774 2.083 1.111-4.567 2.755-14.66 8.155-17.19 5.992 5.049-2.326 9.973-4.946 15.11-7.103zm-1.6-16c1.34 5.301 12.69 19.36 11.36 6.412-6.784-1.261-13.84-10.41-10.4-17.42.661-6.95 15.38-8.071 10.98-14.09-.077 4.47 3.946 4.213-.278-.223-5.614 4.287-16.49 12.01-13.67 21.49.475 1.375 1.318 2.567 2.015 3.83zm108.5 70.6c2.006-7.029.563-16.68 4.898-22.09 2.643 8.447-.687 17.62-1.767 26.19-3.615 19.45-20.62 32.15-28.27 49.78-1.72 5.395-4.999 10.46-2.526 1.219 3.354-16.32 15.38-28.4 23.36-42.39 1.937-4.048 3.262-8.36 4.302-12.72zm-22 94.4c-5.804-5.08 1.546-9.627 3.798-2.33 4.033 4.477 5.137 17.58.413 18.42-2.633-5.088-2.562-10.73-4.211-16.09zm13.4 29.7c-3.127-6.33 5.981-10.34 4.237-1.994 1.316 7.327 3.149 18.07-4.775 22.25-.274-5.059.642-13.99.538-20.26zm43.1-137c-4.292 1.59-22.58-3.938-10.83-5.548-2.268 5.413-3.613-2.114 1.768 1.757 15.16 1.966 30.63-.472 45.52-3.46 4.994 1.076 12.73-7.463 12.87-5.931-5.226 9.312-17.79 10.59-27.37 12.3-7.28.889-14.64 1.233-21.96.887zm52.3-7.2c-5.913-3.784 1.852-10.93 2.997-2.851-.006 14.78-1.27 29.58-2.633 44.31-6.334 6.607-12.99 14.58-22.18 16.73-9.966-2.497 6.926-6.109 9.457-8.84 10.53-3.722 13.77-13.61 12.68-23.78.17-8.518.957-17.09-.317-25.56z" transform="translate(-30.46 94.53) scale(.8434)"/><path d="M375.6 234c4.828-10.84 4.169 7.26 3.112 10.75-1.294 5.435-.535 18.81-7.112 17.98 3.609-8.962 6.547-19.1 4-28.73zm-9.9 5.8c2.778-11.5 3.392 6.839 1.325 10.18-.548 4.109-6.138 16.39-9.303 12.74 5.527-6.092 7.631-14.85 7.978-22.93zm-17 1.1c6.696-5.131 1.393 15.03-.364 19.64-1.866 6.63-6.487 1.429-1.756-2.323 2.749-5.336 2.735-11.5 2.12-17.31zm-13.5.7c5.306-8.903 4.216 8.468 1.944 11.83-.106 3.999-8.178 14.8-4.085 4.694 1.388-5.26 4.922-11.15 2.141-16.53zm-10.5 7.6c1.18-7.342 2.364-6.909 1.718.459-.586 3.569-2.124 15.34-2.518 5.32-.046-1.948.107-3.938.8-5.779zm32.3-76.7c6.603-1.836 8.084 7.588.425 5.679-8.929-2.462-1.867 15.08-8.099 7.223-1.586-5.586 2.082-11.51 7.673-12.9zm-17.4 17.1c-8.771-3.763 7.733-11.5.46-3.068l-.324 1.432zm18.5 7.6c-6.394 1.268-14.87 4.517-17.46-2.182-6.501 10.52 10.57 7.831 15.95 4.968 2.88.176 5.015-1.494 1.502-2.786z" transform="translate(-30.46 94.53) scale(.8434)"/><path d="M337.7 193.2c.577 8.395 3.105 17.67-.841 25.52-.532-8.46.303-18.02.318-26.76l.253.26zM269 119c-6.458-4.88 3.86-4.734 2.361 2.19 8.671-1.984 5.742 9.836 14.04 7.964 3.555 8.506-8.772 3.618-10.09-.699-6.476 1.442-3.908-5.918-6.319-9.455zm32.7 33.9c2.54-8.241 1.485-17.53 3.891-25.14 11.83 1.311 7.685 16.87.836 22.23.464 2.729-3.367 7.159-4.727 2.91zM321 151c-8.333-4.64 7.852-9.305 4.302-.755-.98 1.321-2.932 1.224-4.302.755zm12.7.8c-7.715-9.732 11.83-2.582 0 0zm10.2-.4c-6.841-3.955 6.95-9.861 2.877-1.477-.507.999-1.68 1.937-2.877 1.477zm-51.3-9.4c-13.82-2.536 6.435-9.293 0 0z" transform="translate(-30.46 94.53) scale(.8434)"/><path d="M294.1 113.6c7.167 5.725 7.081 19.55 2.023 26.92-5.727 7.945-16.14 15.08-13.93 26.22-.955 4.922-9.455 4.312-4.454-1.5 3.63-11.48 11.2-20.96 18.18-30.55 3.196-7.244-2.229-16.69-3.909-20.73zm3.5 65.1c1.714-11.03 12.54-5.434 8.978 3.378-2.804 39.48-8.88 78.68-11.44 118.2-.095 16.48-3.9 33.05-1.625 49.45 3.329 19.04-.35 38.63 2.356 57.72 4.024 9.725-.912 18.68-4.516 27.43-4.921 20.3-.74 41.48 7.07 60.49 2.623 4.024 4.982 18.21-2.727 10.28-4.356-8.287-1.104-18.52-5.48-26.76-12.54-2.762-15.13 15.67-17.98 24.66-.03 7.481-14.74 12.25-8.259 1.647 4.22-10.66 5.483-23.67 15.52-30.9 6.757-10.52 2.921-23.68 3.38-35.38 5.043-8.492 12.77-16.79 9.364-27.71-1.852-29.69-2.274-59.45-2.734-89.18 1.291-27.67 2-55.44 5.196-82.97 3.706-16.09 3.109-32.85 3.685-49.28-.185-3.685-.487-7.364-.782-11.04z" transform="translate(-30.46 94.53) scale(.8434)"/></g></svg>