<svg id="_x34_" width="789.1" height="525.5" version="1.1" xml:space="preserve" xmlns="http://www.w3.org/2000/svg" viewBox="0 0 789.1 525.1"><path d="M786 203.9c-9.359 17.42-17.46 37.42-35.39 47.82-12.9 11.25-30.26 14.7-44.84 23.03-23 6.506-47.1 7.897-70.86 9.393-11.46 1.039-22.94-.535-34.39.04-4.992-.176-16.32 4.623-14.19 7.97 31.21 2.29 62.71.024 93.52-5.305 15.28-2.448 29.82-7.856 43.77-14.43 20.43-9.13 41.71-20.73 53.07-40.87 2.801-8.918 11.65-17.77 10.29-26.91l-.97-.741zM475.8 3.3c-25.22 21.9-48.04 49.07-55.74 82.34-8.783 33.05-6.172 70.43 13.19 99.37 2.439 3.654 11.56 17 7.721 5.851-4.737-8.888-11.98-16.59-14.15-26.75-6.793-19.28-10.91-40.26-6.329-60.55 4.148-20.99 10.53-41.95 22.73-59.78 5.972-9.459 14.24-17.09 21.64-25.3 4.504-4.886 15.72-8.44 14.42-15.78-1.114.364-2.297.765-3.478.602zm-21.4 205.5c7.992 13.93 17.92 27.53 32.25 35.44 3.255 2.857 12.53 7.956 10.84 10.37-21.94-10.11-38.27-29.38-49.08-50.55-2.952-3.316-2.948-8.225.77-2.725 1.935 2.343 3.708 4.826 5.221 7.464zm47.49 51.5c13.26 1.11 27.08 13.1 24.39 27.34-.048 4.509-10.36 13.85-10.6 9.011 6.918-5.119 13.48-16.21 5.011-23.14-5.474-5.411-12.58-8.793-18.8-13.21zm69.77 24.05c-5.202 10.9-18.63 11.92-29.11 13.68-3.985.112-15.26-1.261-13.44 3.768 10.4 1.813 20.83-.76 31.19-1.543 5.034-3.471 19.81-1.124 13.6-11.43a57.401 57.401 0 0 0-2.252-4.472zm-47.2 18.32c-8.751 1.503-2.343-7.958 1.573-1.623l-.443.93z" fill="#231510" stroke-width=".79"/><rect class="serifArea" x="480" y="30.37" width="263" height="220" fill="#fff" fill-opacity="0"/><text class="serifText"></text><path d="M4 5.1v516.4h781.1V4L4 5.1z" fill="none" stroke="#000" stroke-width="8"/><g fill="#231815" stroke-width="1.221"><path transform="translate(-456.4 91.36)" d="M761.8 282c9.82 7.838 21.28 15.72 34.14 22.74 12.84 7.023 27.08 13.14 42.09 17.69l1.399.458 1.422.382 2.85.761c1.902.508 3.807 1.017 5.713 1.528 1.896.539 3.839.963 5.775 1.407a253.6 253.6 0 0 0 5.821 1.297 510.723 510.723 0 0 0 23.39 4.494c15.59 2.625 31.07 4.601 45.85 6.02 14.78 1.412 27.38 2.216 37.82 2.68 10.43.47 18.7.601 24.82.589 6.122-.028 10.11-.213 11.96-.439.475-.037.783-.108.988-.136.204-.03.293-.028.262.002-.067.052-.597.283-1.698.461-2.192.36-4.974.672-8.593 1.005-3.622.325-8.09.64-13.68.848-5.593.205-12.31.302-20.43.136-8.115-.164-17.63-.598-28.78-1.552-22.31-1.91-42.29-4.721-59.2-7.791a562.491 562.491 0 0 1-22.98-4.672c-6.807-1.767-12.86-3.161-17.84-4.861-2.512-.793-4.575-1.445-6.382-2.014l-4.723-1.836c-1.44-.582-2.812-1.136-4.303-1.74-.743-.31-1.524-.609-2.34-.975l-2.604-1.23c-1.87-.876-4.038-1.893-6.684-3.136a29.862 29.862 0 0 1-2.052-1.022l-2.223-1.166-5.088-2.66c-7.28-4.065-17.14-9.575-29.83-18.9-12.68-9.34-21.93-17.88-28.79-24.7-6.863-6.83-11.29-12.02-14.04-15.33-5.4-6.687-3.985-5.93 2.19.513 1.572 1.583 3.248 3.325 5.058 5.079 1.824 1.74 3.683 3.592 5.636 5.378 1.963 1.776 3.904 3.607 5.877 5.316l5.744 4.93c3.76 3.019 7.04 5.732 9.52 7.52 2.444 1.828 3.924 2.938 3.924 2.938zm245.2 82.7c-.757 1.513-9.03 8.209-12.31 9.852-3.284 1.642-6.978 3.284-.82 4.105 6.156.82 7.387-3.284 10.67-5.747 3.283-2.464 3.694-10.67 2.461-8.21zm6-13.5c6.568-6.157 5.747-9.442 6.157-11.9.41-2.462 3.695-4.105 3.695-4.105s2.052 2.462 2.052-5.747-4.105-13.96.41-14.37c4.516-.41 7.388.82 6.568 7.799s-4.516 13.14.821 14.78c5.336 1.642 8.21 6.157 11.49 6.568 3.284.41 5.336 2.052 2.874 2.052s-7.799.41-5.747 1.642 6.157 4.516 7.388 13.55c1.231 9.031 2.052 13.96-.41 14.78-2.462.82-3.695-.41-2.874-6.978.82-6.568-3.695-16.83-6.978-20.11-3.284-3.283-2.462 0-4.926 2.052-2.462 2.052-6.157 7.799-7.388 10.67-1.231 2.873-5.747-2.462-.821-6.157s10.67-4.926 8.209-9.852c-2.462-4.926-5.336-8.209-8.209-6.157-2.874 2.052-4.105 4.105-5.336 8.209-1.231 4.108-6.978 3.287-6.978 3.287zm-5-18.5c3.3 2.476 4.516-2.052 6.568 0 2.052 2.052 2.052 5.747-2.052 5.747-4.105 0-6.158-6.978-4.516-5.747zm49 11.5c-4.105-2.873-6.157.41-9.03-6.568-2.874-6.978-4.926-12.72-1.642-19.29 3.284-6.568 11.49-11.08 16.01-11.49 4.516-.41 5.336-.41 9.03-1.231s8.62 3.695 2.873 5.747c-5.747 2.052 0-.41-9.851.41-9.852.821-14.78 3.695-16.01 8.62-1.232 4.925-2.052 14.78 1.642 17.24 3.694 2.464 6.157 2.462 8.62 4.926 2.462 2.462 3.284 5.747 7.799 4.926 4.516-.82 9.03-4.105 4.516-6.568-4.516-2.462.82-2.874 1.642 0 .82 2.874 1.642 7.388-3.695 9.03-5.336 1.642-7.388.821-11.08-4.105-3.694-4.926-.82-1.642-.82-1.642zm25-31.2c-2.874 0-4.516-5.336.41-4.926 4.926.41 12.31 1.642 13.96 13.55s-3.695 16.83-10.26 21.75c-6.568 4.926-8.62 3.695-1.642-1.231s10.67-11.49 9.03-17.65c-1.642-6.157-4.516-9.44-6.157-9.852-1.642-.41-5.335-1.64-5.335-1.64zm-16 42.3c5.336 0 4.105-2.873 7.799 2.462 3.695 5.336 7.388 10.26 11.49 15.6 4.105 5.336 8.62 9.852 9.852 10.67 1.231.82-.41 6.157-.41 6.157s3.695 2.052 7.799.82c4.104-1.23 5.747 1.232 2.052 4.106-3.695 2.873-6.978.82-6.978.82s-10.26.821-9.44-3.694c.82-4.516 0-6.157.41-8.62.41-2.462-5.747-11.49-9.44-15.19l-13.14-13.14zm-2 10.3c0-3.695-.82-4.926 2.874-3.695 3.695 1.231 2.052 7.799 2.052 7.799s2.462 1.231-4.516 7.388-6.978 8.62-6.978 6.157c0-2.462.82-5.336 3.695-8.209 2.873-2.873 2.873-9.44 2.873-9.44z"/><path transform="translate(-456.4 91.36)" d="M1085 362.7c4.088-4.905 4.926-9.44 7.799-8.209s3.283 2.874.82 5.336c-2.461 2.462-5.746 3.695-6.567 8.62s-6.157-.822-2.052-5.747zm15-11.9c7.388-3.283 6.157-3.283 9.852-8.62 3.695-5.336 6.978-12.31 11.9-13.14s14.78-.82 18.06.41c3.283 1.231 5.336 6.157 2.052 4.926-3.284-1.23-3.695-2.873-9.44-2.873-5.747 0-7.388-1.642-11.49 2.052-4.105 3.695-8.209 6.978-9.03 8.62-.82 1.642-7.799 6.978-4.105 6.978s5.336-3.283 9.44-2.462c4.105.821 4.516 3.695 11.9 4.105 7.388.41 10.67-3.283 13.96-6.157 3.284-2.874 5.336-4.926 9.031-10.67 3.695-5.747 6.568-6.157 5.747-2.874-.82 3.284-3.695 4.926-6.978 9.852-3.284 4.926-7.388 10.26-12.31 11.49-4.926 1.231-7.799 2.052-11.9.821-4.105-1.23-4.516-4.516-11.08-2.874-6.568 1.642-7.388.821-11.08 3.284-3.695 2.462-4.516-2.874-4.516-2.874z"/><path transform="translate(-456.4 91.36)" d="M1128 356.1c7.321 1.83 6.978 9.03 6.568 14.37-.41 5.336-7.388 15.6-7.388 15.6s-9.442 9.442-15.19 10.67c-5.747 1.231-3.284-3.695-3.284-3.695s1.231 3.695 5.747.82c4.516-2.873 9.852-6.567 11.9-9.851s4.105-16.01 4.105-16.01-4.926-13.96-9.442-16.01 5.336 3.696 6.978 4.108zm14 6.2c7.799-.41 11.9-1.231 19.7 3.284 7.799 4.516 6.568 8.209 14.37 8.209 7.799 0 6.568-2.873 7.799-1.642s1.642 4.516-2.052 5.747c-3.695 1.231-9.44.41-9.44.41s-4.105.821-6.978 4.105c-2.874 3.284-11.49 6.978-18.88 6.157-7.388-.82-6.568-1.23-8.209-3.695-1.642-2.462-6.978-3.284-4.516-4.516s1.231-.82 6.157 2.052c4.926 2.874 5.747 4.516 11.08 3.695 5.336-.82 6.157-1.642 10.26-4.516 4.105-2.874 5.336-2.462 5.747-4.926.41-2.462-6.157-8.209-9.442-9.44-3.283-1.23-6.157-2.462-12.72-1.23-6.568 1.23-2.874-3.696-2.874-3.696z"/><path transform="translate(-456.4 91.36)" d="M1112 378.3c-6.157.41-5.747-5.747-3.284-6.157 2.462-.41 2.874.82 5.336.41s2.462 2.462 1.231 4.516c-1.231 2.052-3.283 1.231-3.283 1.231zM612.3 182.2c0 4.379 1.642 66.22-10.4 91.95-12.04 25.72-21.34 44.88-31.74 53.09s-13.68 2.189-8.209 1.094c5.473-1.094 7.115-4.926 14.23-10.95s17.51-35.03 20.8-40.5c3.283-5.473 12.04-43.24 12.04-56.37 0-13.14-.547-38.86-.547-41.05 0-2.188 3.832 2.738 3.832 2.738z"/><path transform="translate(-456.4 91.36)" d="M624.2 204.6c-.98 5.47-7 29.55-9.736 33.93-2.737 4.379-8.209 6.02-10.95 5.473-2.736-.547 2.825-23.25 1.094-18.06-3.283 9.852-8.209 20.25-3.283 20.8 4.926.547 12.04-2.736 14.23-5.473 2.189-2.737 10.4-33.39 10.95-37.22.547-3.829-1.325-4.916-2.305.552zm-5.4-72c-6.5-4.334-11.92-20.58-8.667-19.5 3.25 1.083 4.334 2.709 4.875 4.334.541 1.624 4.876 10.83 5.958 12.46 1.085 1.624-2.166 2.708-2.166 2.708zm-5.4-21.7c-2.167-2.708 0-4.875 3.791-4.875s13.54 3.25 19.5 13c5.958 9.751 2.167 6.5 2.167 6.5s-11.92-14.08-16.25-14.63c-4.334-.542-9.208 0-9.208 0zm48.7 12c2.709-3.791 13-12.46 16.25-18.96s3.25-6.5 5.958-1.626 3.791 8.666 0 9.208c-3.791.541-2.708 1.083-5.958 3.791-3.25 2.709-5.417 10.29-9.751 10.83-4.331.541-6.499-3.25-6.499-3.25zm15.7 7.5c3.25-3.791 10.29-11.38 10.83-16.25s3.791-7.584 3.791-7.584 3.25 3.25 1.083 8.125-7.584 14.63-10.29 16.25c-2.707 1.624-5.416-.542-5.416-.542z"/><path transform="translate(-456.4 91.36)" d="M653.4 140.7c-3.25-5.416-5.958-11.92-11.38-10.29-5.417 1.624-14.63 11.38-20.04 20.04s-5.417 11.92-13 16.79c-7.584 4.875-14.08 8.667-5.958 8.667s10.29-3.25 17.33-8.667c7.041-5.417 10.29-2.708 6.5.541-3.791 3.25-11.92 10.29-15.17 11.92-3.25 1.624-13 .541-13 .541s-7.584 1.626-6.5-4.334c1.083-5.958 3.25-7.04 3.25-7.04s13.54-3.792 21.67-17.33 11.92-20.58 18.96-23.29c7.041-2.709 16.79-2.709 18.96-2.168 2.167.541 1.083 5.417 3.25 10.83 2.166 5.416-4.876 3.791-4.876 3.791zm13.6 0c-1.626-6.5-9.751-18.42-1.626-15.17s14.63 10.29 20.04 17.33c5.417 7.041.541 14.08 5.958 28.17s14.63 36.83 15.17 44.42c.542 7.584-2.708 28.17-8.666 34.13s-10.29 37.38-7.584 47.67c2.708 10.29 1.083 10.83-2.167 6.5-3.25-4.334-1.083-42.79-.541-48.21.541-5.417 4.875-12.46 4.875-12.46s9.208-15.71 7.04-27.08c-2.166-11.38-7.583-27.62-9.207-37.38-1.624-9.749-3.791-18.42-5.958-23.83-2.167-5.417-2.708-14.08-9.751-15.71-7.041-1.626-7.583 1.624-7.583 1.624z"/><path transform="translate(-456.4 91.36)" d="M695.7 152.1c1.624 2.708 15.17 22.21 15.71 26.54.541 4.334 0 10.83-4.875 14.08s-11.38 3.791-7.583 0c3.791-3.792 5.958-1.083 8.125-6.5s-3.25-19.5-10.29-27.08c-7.043-7.584-1.085-7.041-1.085-7.041zm-69.3 23.3c4.875 1.083 11.92 5.417 8.125 12.46-3.791 7.041-7.584 10.29-5.958 13.54 1.624 3.25 9.751 22.75 11.92 24.38 2.167 1.624-1.083 8.125-4.334 1.624-3.25-6.5-9.208-16.79-11.92-22.75-2.709-5.958 1.626-4.334 2.167-12.46.54-8.125-.001-16.79-.001-16.79z"/><path transform="translate(-456.4 91.36)" d="M648 222c2.709-3.791 4.334 3.25 4.334 7.041s-3.25 5.958-12.46 12.46-20.04 24.92-18.96 36.29c1.083 11.38 4.876 17.88 14.63 19.5 10.29 3.792 5.958 12.46 4.334 15.71s-12.46 17.88-17.88 21.13-4.875-1.083-8.667-1.083c-3.791 0-11.38 9.208-17.88 13-6.5 3.791-9.208-.542-4.875-3.791 4.334-3.25 7.584-3.791 11.92-7.584 4.334-3.791 6.5-6.5 10.29-4.334 3.791 2.167 3.25 4.875 8.666-1.083 5.417-5.958 10.83-7.584 13-15.17 2.167-7.584 5.958-12.46-4.334-15.71-10.29-3.25-18.42-14.08-14.63-31.42 3.792-17.33 19.5-32.5 22.21-34.67 2.708-2.167 10.29-10.29 10.29-10.29zm18.4 62.8c4.875-2.708 4.875-9.751 7.041-5.417 2.167 4.334 12.46 29.25 37.38 39.54s40.63 12.46 54.71 9.208c14.08-3.25 36.29-6.5 52.54-3.25s57.42 13.54 68.25 17.33c10.83 3.791 17.33 2.167 20.58 4.334s1.624 6.5-3.25 5.958c-4.875-.541-13-1.626-20.04-7.041-7.041-5.416-56.33-17.33-66.62-17.88-10.29-.541-27.08-2.708-39.54 3.25s-37.92.541-52-1.626-24.37-7.041-31.96-14.08c-7.584-7.041-18.42-24.38-20.04-25.46-1.623-1.082-7.04-4.873-7.04-4.873z"/><path transform="translate(-456.4 91.36)" d="M697.3 263.1c0-7.584 3.25-14.08 7.041-11.92 3.791 2.167-4.334 10.29 1.083 19.5 5.417 9.208 10.83 17.88 20.04 17.88s9.751 4.334 5.417 8.666c-4.334 4.334-5.417 8.667-5.417 17.88 0 9.208-.541 18.96 0 22.75.542 3.792-1.083 6.5-2.708 4.875-1.624-1.626-1.083-8.125-4.334-4.875-3.25 3.25-1.624 8.125-9.208 10.83-7.584 2.708-6.5 3.791-14.08-1.083-7.584-4.875-7.041-9.751-2.709-6.5 4.334 3.25 5.958 10.83 14.08 3.791 8.125-7.041 8.125-11.92 11.38-11.38s2.709-4.334 2.709-4.334l1.083-29.25s-4.875-9.751-13-17.33c-8.127-7.583-11.38-19.5-11.38-19.5zm-5.9-122.9c9.751-8.666 31.96-18.96 50.37-21.67 9.751 0 10.29 1.624 4.334 3.25-5.958 1.626-18.96 0-33.58 8.667-13.76 8.154-14.63 9.208-18.96 11.92-4.334 2.709-2.167-2.167-2.167-2.167zM671.9 256c2.874-4.926 0-7.799 3.284-7.388 3.283.41 3.695.82 1.642 4.926-2.052 4.105-12.72 16.42-19.29 22.99-6.568 6.568-11.49 8.62-11.49 15.19 0 6.568-2.873-4.926 1.642-9.03 4.516-4.105 5.336-5.336 9.852-9.442 4.516-4.105 14.37-17.24 14.37-17.24z"/><path transform="translate(-456.4 91.36)" d="M658 262.5c2.427-5.763 4.105-9.44 4.926-7.388s-1.231 9.031-6.978 17.65c-5.747 8.62-9.44 12.72-6.568 6.568 2.873-6.157 5.335-9.03 8.62-16.83zm-11.5 32.9c.82 5.336-.41 7.388 4.926 10.67 5.336 3.284 4.926 7.388 1.642 9.03s-11.9 6.978-16.42 13.14c-4.516 6.157-9.031 14.37-9.031 18.47s-.426 4.359-2.462 4.105c0 0-5.336-3.695-2.873-6.978 2.462-3.284 1.642-1.642 6.157-6.978 4.516-5.336 7.388-12.31 13.55-16.83 6.157-4.516 9.44-9.03 5.336-11.9-4.105-2.873-4.105-10.67-4.105-13.14 0-2.462 3.284.41 3.284.41z"/><path transform="translate(-456.4 91.36)" d="M616.5 344.2c2.052-3.695 2.874-5.336 4.105-2.052 1.231 3.283.82 10.67-2.462 12.72-3.284 2.052-1.643-10.67-1.643-10.67zm-11.1 0c2.421-3.63 6.157-5.336 6.157-3.284s-2.873 1.642-2.873 5.747 3.283 6.978 0 7.799c-3.284.82-5.747-6.568-3.284-10.26zM718.7 327c2.462.82 4.926 4.105.82 4.105s-4.104.41-8.208 2.052c-4.105 1.642 0 3.695-4.105 4.105-4.105.41-7.388.41-7.388.41s-2.462 4.516-5.336 5.336c-2.874.821-3.695.41-4.516 2.874-.821 2.462 4.105 2.873-2.052 3.695-6.157.821-9.03-.41-4.926-1.642 4.105-1.23 4.105-.41 5.336-5.747 1.23-5.336-1.231-7.388 5.747-7.799 6.978-.41 11.49 1.231 14.37-1.642 2.873-2.876 10.26-5.749 10.26-5.749zm-21.3-47.7c2.873 4.105 10.26 9.852 19.29 10.67 4.926 1.642 2.462 3.695 2.462 3.695s-12.72.41-18.47-5.336c-5.746-5.747-3.283-9.031-3.283-9.031zm-.3-134.9c9.305-1.642 24.58-3.144 20.25-.547-2.737 1.642-16.42 2.189-20.25 2.736-3.83.547 0-2.19 0-2.19zm6.6 6.1c9.305 1.094 36.12 6.02 46.52 11.49 2.189.547-31.74-7.662-42.14-8.756s-4.379-2.737-4.379-2.737zm-115.5-18.6c6.568 2.737 25.72 13.68 22.99 14.78-2.737 1.094-3.284 1.094-6.02-1.642-2.737-2.736-16.97-13.14-16.97-13.14z"/></g></svg>