<svg id="_x34_" width="789.1" height="525.5" version="1.1" xml:space="preserve" xmlns="http://www.w3.org/2000/svg" viewBox="0 0 789.1 525.1"><path d="M786 203.9c-9.359 17.42-17.46 37.42-35.39 47.82-12.9 11.25-30.26 14.7-44.84 23.03-23 6.506-47.1 7.897-70.86 9.393-11.46 1.039-22.94-.535-34.39.04-4.992-.176-16.32 4.623-14.19 7.97 31.21 2.29 62.71.024 93.52-5.305 15.28-2.448 29.82-7.856 43.77-14.43 20.43-9.13 41.71-20.73 53.07-40.87 2.801-8.918 11.65-17.77 10.29-26.91l-.97-.741zM475.8 3.3c-25.22 21.9-48.04 49.07-55.74 82.34-8.783 33.05-6.172 70.43 13.19 99.37 2.439 3.654 11.56 17 7.721 5.851-4.737-8.888-11.98-16.59-14.15-26.75-6.793-19.28-10.91-40.26-6.329-60.55 4.148-20.99 10.53-41.95 22.73-59.78 5.972-9.459 14.24-17.09 21.64-25.3 4.504-4.886 15.72-8.44 14.42-15.78-1.114.364-2.297.765-3.478.602zm-21.4 205.5c7.992 13.93 17.92 27.53 32.25 35.44 3.255 2.857 12.53 7.956 10.84 10.37-21.94-10.11-38.27-29.38-49.08-50.55-2.952-3.316-2.948-8.225.77-2.725 1.935 2.343 3.708 4.826 5.221 7.464zm47.49 51.5c13.26 1.11 27.08 13.1 24.39 27.34-.048 4.509-10.36 13.85-10.6 9.011 6.918-5.119 13.48-16.21 5.011-23.14-5.474-5.411-12.58-8.793-18.8-13.21zm69.77 24.05c-5.202 10.9-18.63 11.92-29.11 13.68-3.985.112-15.26-1.261-13.44 3.768 10.4 1.813 20.83-.76 31.19-1.543 5.034-3.471 19.81-1.124 13.6-11.43a57.401 57.401 0 0 0-2.252-4.472zm-47.2 18.32c-8.751 1.503-2.343-7.958 1.573-1.623l-.443.93z" fill="#231510" stroke-width=".79"/><rect class="serifArea" x="480" y="30.37" width="263" height="220" fill="#fff" fill-opacity="0"/><text class="serifText"/><path d="M4 5.1v516.4h781.1V4L4 5.1z" fill="none" stroke="#000" stroke-width="8"/><g fill="#231815" stroke-width="1.165"><path d="M178.5 357.5c-1.627.107-2.96 2.377 1.311 5.582 4.881 3.66 9.151 9.76 12.2 28.06 3.051 18.3 12.2 61 19.52 75.64s28.67 35.38 44.53 49.41c3.988 3.528 5.296 3.756 12.5 9.602 1.797-.074 3.593-.147 5.391-.193-28.05-20.95-41.45-33.5-55.71-55.16-16.47-25.01-24.4-96.38-26.23-102.5-1.831-6.1-3.826-7.376-12.81-10.37a1.835 1.835 0 0 0-.701-.09zM175.5 246.6c2.44-7.32-1.221-15.25 3.051-10.37 4.27 4.881 2.439 21.35 2.439 21.35l-11.59 4.881s-47.58 61-59.17 79.3c-11.59 18.3-22.57 44.53-21.96 73.81.61 29.28 0 52.46.61 62.22.61 9.761-2.44 12.2-3.05-3.66-.61-15.86-1.221-65.27-.61-75.03.61-9.76 6.71-32.94 13.42-43.31 6.711-10.37 15.86-25.62 15.86-25.62s23.18-31.72 26.84-35.99c3.66-4.27 29.28-37.82 29.28-37.82zM196.3 214.8c-6.71 7.93-8.539 10.98-1.219 13.42 7.32 2.439 34.77 7.93 46.36 14.64 11.59 6.711 17.69 18.91 24.4 29.89 6.711 10.98 10.98 25.62 10.98 25.62s-17.08-35.38-28.06-43.92c-10.98-8.539-15.86-9.76-26.23-12.81-10.37-3.049-25.01-5.491-31.11-8.539-6.101-3.051-4.272-7.932-1.829-14.03 2.439-6.1 6.1-9.151 6.1-9.151z"/><path d="M207.8 167.3c6.1 3.66 5.491 4.879 7.93 16.47 2.44 11.59-2.44 25.62-3.051 31.72-.61 6.1-.61 12.2-4.879 14.64-4.272 2.44-11.59 1.831-7.32-.61 4.27-2.44 7.93-1.83 9.151-8.54 1.219-6.711 5.491-22.57 3.048-34.16-2.439-11.59-4.879-19.52-4.879-19.52zM282.9 126.4c2.44.612 1.829 9.761-3.051 8.541-4.881-1.221-14.03-17.08-29.28-13.42-15.25 3.66-27.45 12.81-32.94 24.4-5.491 11.59-7.32 15.25-7.32 17.08 0 1.831-5.491 4.881-1.831-2.439s4.27-10.37 9.151-18.91c4.881-8.541 16.47-19.52 26.84-21.96 10.37-2.441 21.35-2.441 27.45.61a147.8 147.8 0 0 1 10.98 6.097zM289.6 136.8c-1.349-4.052 9.761 3.051 15.86 5.491s8.541 13.42 9.151 16.47c.61 3.051-10.98 1.221-10.98 1.221s-17.08-.61-22.57-.61c-5.491 0-10.37.61-8.541-3.66 1.829-4.27 3.051-11.59 5.491-12.2 2.44-.612 4.27-.612 1.22 4.878-3.051 5.491-5.491 5.491-1.829 7.32 3.66 1.83 15.86-1.219 23.18 0 7.32 1.221 4.881-2.439 3.66-4.879-1.219-2.44-7.32-8.54-9.76-8.54s-3.66 2.44-6.099 3.05c-2.441.61-7.32-3.66-4.272-3.66 3.05 0 5.49-3.052 5.49-4.882zM297.2 165.8c5.039-.388 8.921 3.202 5.948 4.346-2.974 1.144-8.007.458-12.35 0-4.346-.458-8.235.228-11.44.915s4.804-3.202 4.804-3.202 7.092-1.601 13.04-2.06z"/><path d="M269.1 154.4c1.829.458 4.346.228 5.719-.458s2.059 2.059.915 4.118-2.517 3.202-2.287 5.261c.228 2.059 2.059 5.719 2.059 5.719s2.745 2.974.686 4.118c-2.059 1.144-7.549 2.287-10.98 3.432s-5.719 2.059-8.693 2.745-8.464 1.373-5.948.228 3.202-1.83 6.177-2.745c2.974-.914 6.634-2.287 9.379-2.745 2.745-.458 4.804-2.745 4.804-2.745s-.686-6.177-1.144-8.464c-.458-2.287-.686-4.346-1.144-5.49-.458-1.143-.458-3.202.457-2.974zM263.8 137c2.405 2.187 3.432 2.517 4.346 4.804s1.144 4.118-.686 4.118-2.745-1.829-4.118-4.346c-1.373-2.517-2.06-6.863.458-4.576zM256.5 144.8c2.606.978 7.092 5.261 4.804 6.863-2.287 1.601-3.432-1.144-5.261-3.432-1.832-2.287-1.374-4.118.457-3.432zM246 143.2c1.601.915 5.947 3.202 3.888 3.432-2.058.228-3.888-3.432-3.888-3.432zM246 189.1c3.203 2.287 8.693 4.575 7.092 5.719-1.601 1.144-6.862-2.287-5.491 3.888 1.373 6.177 3.202 15.56 7.549 24.94 4.346 9.379 4.118 16.47 3.888 20.36-.228 3.888-1.373 10.07-1.829 11.21-.458 1.144-6.405-2.059-5.261-3.432 1.144-1.373 1.144-1.144 1.829-8.693.686-7.55 2.974-10.75-2.059-20.82s-5.491-11.67-6.634-13.95c-1.144-2.287-.915-9.151-1.144-12.81-.228-3.66-1.144-6.176-.686-6.862.459-.686 2.747.458 2.747.458z"/><path d="M255.6 211.8c5.46-6.825 17.84-21.05 22.88-22.88 5.033-1.829 5.491-1.829 13.73-.458 8.235 1.373 33.4 9.151 37.97 10.52 4.575 1.373 4.575 5.491 2.745 8.693-1.831 3.202-8.235 8.235-8.235 8.235l-3.202-.458 4.118-7.32-.458-6.862s-28.82-7.32-34.31-8.693-10.98-1.829-16.93 3.202c-5.948 5.033-11.44 8.235-12.81 12.81-1.373 4.575-1.829 5.491-4.575 6.863-2.747 1.373-2.747-1.373-.917-3.66zM279.8 223.2c4.575 2.745 8.693 10.07 8.693 10.07s-7.778 53.53-4.575 78.69c3.202 25.16-6.862-32.48-5.491-46.21 1.373-13.73 1.829-22.88 1.829-29.28.001-6.405-.457-13.27-.457-13.27zM316.4 223.7c3.203-4.575 6.863-2.287 5.033.915-1.829 3.202.458 1.83-5.491 8.235-5.948 6.405-10.98 11.9-15.1 23.33-4.118 11.44-9.608 15.1-12.35 18.3-2.745 3.203.458-.458 4.575-6.862 4.118-6.405 7.778-23.33 12.35-28.37 4.577-5.033 10.98-15.56 10.98-15.56z"/><path d="M335.6 300.5s-11.9 7.32-22.88 11.9c-10.98 4.575-18.3 2.745-27.45 5.49l-9.148 2.742c18.3 2.745 29.28-1.83 50.33-9.15 21.05-7.32 19.22 9.151 10.98 23.79-8.235 14.64.916 58.56-10.06 83.27-10.98 24.71-7.321 38.43-2.746 74.12 2.362 18.43 4.475 19.79 6.35 33.24.254.056.506.12.756.193l2.627-.396c-3.93-25.84-10.48-60.49-9.732-68.72.915-10.07 3.66-32.94 9.15-42.09 5.49-9.151 4.576-52.16 4.576-55.82s0-10.98 3.66-19.21 7.318-22.88 7.318-22.88l-2.744-12.81zM75.78 451.5s-9.149 11.89-11.89 21.05c-2.745 9.151-3.66 19.22 0 32.94 2.639 9.898 8.154 14.89 16.85 17.95.38-.39.581-.586 2.926-3.016 5.565-4.218-5.928-5.778-10.62-9.695-6.026-5.099-7.591-15.53-6.479-26.97 1.084-11.14 4.708-23.22 9.223-32.25zM155.4 424.1c5.491.61 16.47 7.32 27.45 18.91s26.84 23.79 29.89 26.23c3.051 2.44 0 2.44 0 2.44s-18.3-10.37-23.18-15.86c-4.881-5.491-15.25-18.91-23.79-23.18-8.543-4.272-10.37-8.541-10.37-8.541zM144.4 472.9c6.1 3.66 35.99 4.27 48.19 4.27 12.2 0 12.81 1.829 9.761 1.829-3.051 0-23.79 1.829-30.5 1.829-6.711 0-17.08 0-24.4-2.44-7.32-2.439-3.051-5.488-3.051-5.488z"/><path d="M347.9 337.7c-.686.076-1.296 1.906-.99 5.871 2.44 6.711-3.051 46.36-3.051 50.63 0 4.27-1.828 13.42 2.44 39.65 3.23 19.84 1.188 61.45-.763 91.71.81.132 1.605.352 2.424.434a12.974 12.974 0 0 1 1.707-.141c.029-5.515.17 3.539.904-2.33 1.831-14.64 1.22-74.42 0-80.52-1.22-6.099-3.05-19.52-4.27-26.23-1.22-6.711.61-23.18 1.22-29.28.609-6.099 1.828-39.04 1.828-45.14 0-3.049-.762-4.727-1.449-4.65z"/></g></svg>